# xmcd
#
# Track frame offsets: 
#        150
#        14671
#        28691
#        44554
#        58828
#        73108
#        87868
#        102838
#        117746
#        131766
#
# Disc length: 1966 seconds
#
# Revision: 6
# Processed by: cddbd v1.5.2PL0 Copyright (c) Steve Scherf et al.
# Submitted via: ExactAudioCopy v1.0b3
#
DISCID=9507ac0a
DTITLE=Kara - Revolution 2
DYEAR=2009
DGENRE=KPop
TTITLE0=Mr.
TTITLE1=Wanna
TTITLE2=魔法
TTITLE3=見つからないように
TTITLE4=Let It Go
TTITLE5=Take A Bow
TTITLE6=AHA
TTITLE7=同じ気持ち
TTITLE8=Wanna [Instrumental]
TTITLE9=魔法[Instrumental]
EXTD=YEAR: 2009
EXTT0=
EXTT1=
EXTT2=
EXTT3=
EXTT4=
EXTT5=
EXTT6=
EXTT7=
EXTT8=
EXTT9=
PLAYORDER=
